# Exported from ProBuilder
# http://www.procore3d.com/probuilder
# 09/06/2019 22:25:12

mtllib ./slice_2.mtl
o slice_2

g slice_2
v 0.336567 0 -0.4567688
v -1.418582 0 2.577571
v 1.262043 0 0.3338127
v 0.336567 0.8076906 -0.4567688
v -1.418582 0.8076906 2.577571
v 1.262043 0.8076906 0.3338127
v 1.262043 0 0.3338127
v -1.418582 0 2.577571
v 1.262043 0 0.3338127
v -1.418582 0 2.577571
v -1.418582 0 2.577571
v 0.336567 0 -0.4567688
v -1.418582 0 2.577571
v 0.336567 0 -0.4567688
v 0.336567 0 -0.4567688
v 1.262043 0 0.3338127
v 0.336567 0 -0.4567688
v 1.262043 0 0.3338127
v 1.262043 0 0.3338127
v -1.418582 0 2.577571
v -1.418582 0 2.577571
v 0.336567 0 -0.4567688
v 0.4031063 0.3499655 -0.5195714
v -1.418582 0.4038453 2.577571
v 0.336567 0 -0.4567688
v 1.262043 0 0.3338127
v 1.328582 0.3499655 0.27101
v 0.4031063 0.3499655 -0.5195714
v 1.328582 0.3499655 0.27101
v -1.418582 0.4038453 2.577571
v -1.418582 0.6057679 2.577571
v 1.302284 0.578828 0.2884724
v -1.418582 0.8076906 2.577571
v 1.262043 0.8076906 0.3338127
v 0.3768081 0.578828 -0.5021091
v -1.418582 0.6057679 2.577571
v 0.336567 0.8076906 -0.4567688
v -1.418582 0.8076906 2.577571
v 1.302284 0.578828 0.2884724
v 0.3768081 0.578828 -0.5021091
v 1.262043 0.8076906 0.3338127
v 0.336567 0.8076906 -0.4567688

vn 0 -1 0
vn 0 -1 0
vn 0 -1 0
vn 0 1 0
vn 0 1 0
vn 0 1 0
vn 0 0 0
vn 0 0 0
vn 0 0 0
vn 0 0 0
vn 0 0 0
vn 0 0 0
vn 0 0 0
vn 0 0 0
vn 0 0 0
vn 0 0 0
vn 0 0 0
vn 0 0 0
vn 0.6417771 0.01557152 0.7667331
vn 0.6424701 0.007130151 0.7662776
vn -0.8631337 0.03421485 -0.503815
vn -0.863214 0.07452143 -0.4993078
vn -0.8632898 0.01201437 -0.5045655
vn -0.8624333 -0.01658967 -0.5058989
vn 0.6286286 -0.25158 -0.7358897
vn 0.6286286 -0.25158 -0.7358897
vn 0.6459874 -0.104145 -0.7562103
vn 0.6459874 -0.104145 -0.7562103
vn 0.6426268 0.009090487 0.7661254
vn 0.6432456 0.004248759 0.7656482
vn 0.6430294 -0.01397406 0.765714
vn 0.6434802 -0.007900838 0.765422
vn 0.641855 0 0.7668261
vn 0.6426301 -0.02058101 0.7659
vn -0.8627987 -0.03910782 -0.5040329
vn -0.8643691 -0.01896559 -0.5025001
vn -0.8644766 -0.02792891 -0.5018966
vn -0.8656209 0 -0.5006999
vn 0.6396095 0.1740167 -0.7487442
vn 0.6342462 0.2155843 -0.7424657
vn 0.6278732 0.2560125 -0.7350054
vn 0.6278732 0.2560125 -0.7350053

vt 0 0
vt 1.755149 3.03434
vt -0.9254761 0.7905815
vt 0 0
vt -1.755149 3.03434
vt 0.9254761 0.7905815
vt 0 0
vt 0 0
vt 0 0
vt 0 0
vt 0 0
vt 0 0
vt 0 0
vt 0 0
vt 0 0
vt 0 0
vt 0 0
vt 0 0
vt -0.2009895 -0.002430432
vt 3.29475 -0.002423056
vt -3.505378 -1.029959E-05
vt 0 0
vt 0.08775115 0.202792
vt -3.505378 0.2340349
vt 0 0
vt 1.21717 -2.60102E-05
vt 1.22733 0.2032834
vt 0.01016001 0.2033094
vt -0.2923294 0.2003998
vt 3.29475 0.2316218
vt 3.29475 0.3486443
vt -0.2609586 0.3330421
vt 3.29475 0.4656667
vt -0.2009895 0.4656594
vt 0.05942941 0.3354423
vt -3.505378 0.3510575
vt 0 0.4680905
vt -3.505378 0.4680802
vt 1.218556 0.3357527
vt 0.001386758 0.3357787
vt 1.21717 0.4680579
vt 0 0.4680839

g slice_2_0
usemtl Default_Prototype
f 9/9/9 10/10/10 8/8/8 7/7/7
f 13/13/13 14/14/14 12/12/12 11/11/11
f 17/17/17 18/18/18 16/16/16 15/15/15

g slice_2_1
usemtl Default_Prototype
f 3/3/3 2/2/2 1/1/1
f 4/4/4 5/5/5 6/6/6
f 27/27/27 26/26/26 28/28/28
f 26/26/26 25/25/25 28/28/28
f 39/39/39 28/28/28 40/40/40
f 27/27/27 28/28/28 39/39/39
f 41/41/41 40/40/40 42/42/42
f 39/39/39 40/40/40 41/41/41
f 32/32/32 30/30/30 29/29/29
f 31/31/31 30/30/30 32/32/32
f 32/32/32 34/34/34 31/31/31
f 34/34/34 33/33/33 31/31/31
f 29/29/29 20/20/20 19/19/19
f 29/29/29 30/30/30 20/20/20
f 23/23/23 22/22/22 21/21/21
f 23/23/23 21/21/21 24/24/24
f 35/35/35 24/24/24 36/36/36
f 35/35/35 23/23/23 24/24/24
f 38/38/38 37/37/37 36/36/36
f 37/37/37 35/35/35 36/36/36

