# Exported from ProBuilder
# http://www.procore3d.com/probuilder
# 6/8/2019 9:32:47 PM

mtllib ./slice.mtl
o slice

g New Game Object
v 19.78428 0 -1.752119
v 20.21619 0 -2.479202
v 17.79214 0 -0.8760595
v 20.64809 0 -3.206285
v 19.86798 0 -3.131797
v 19.08786 0 -3.057308
v 17.44393 0 -1.528654
v 18.83006 0 -2.003928
v 15.8 0 0
v 21.81827 0 -3.318017
v 21.86012 0 -4.007856
v 21.77642 0 -2.628178
v 23.76856 0 -3.504238
v 23.42035 0 -4.156833
v 23.07214 0 -4.809427
v 22.72393 0 -5.462022
v 21.29595 0 -4.296909
v 22.37572 0 -6.114616
v 20.73179 0 -4.585962
v 19.86798 3.968006 -3.131797
v 21.29595 3.968006 -4.296909
v 19.08786 3.968006 -3.057308
v 20.73179 3.968006 -4.585962
v 22.37572 3.968006 -6.114616
v 22.72393 3.968006 -5.462022
v 23.07214 3.968006 -4.809427
v 20.64809 3.968006 -3.206285
v 21.86012 3.968006 -4.007856
v 21.81827 3.968006 -3.318017
v 20.21619 3.968006 -2.479202
v 23.42035 3.968006 -4.156833
v 23.76856 3.968006 -3.504238
v 21.77642 3.968006 -2.628178
v 19.78428 3.968006 -1.752119
v 15.8 3.968006 0
v 17.44393 3.968006 -1.528654
v 18.83006 3.968006 -2.003928
v 17.79214 3.968006 -0.8760595
v 23.15801 1.984003 -4.861082
v 22.8098 1.984003 -5.513677
v 22.8098 0.9920015 -5.513677
v 23.15801 0.9920015 -4.861082
v 22.46159 1.984003 -6.166271
v 22.46159 0.9920015 -6.166271
v 22.37572 0 -6.114616
v 22.72393 0 -5.462022
v 23.07214 0 -4.809427
v 23.76856 0 -3.504238
v 23.85443 0.9920015 -3.555893
v 23.50622 0.9920015 -4.208488
v 23.42035 0 -4.156833
v 23.85443 1.984003 -3.555893
v 23.50622 1.984003 -4.208488
v 23.76856 3.968006 -3.504238
v 23.42035 3.968006 -4.156833
v 23.50622 2.976005 -4.208488
v 23.85443 2.976005 -3.555893
v 23.07214 3.968006 -4.809427
v 23.15801 2.976005 -4.861082
v 22.72393 3.968006 -5.462022
v 22.8098 2.976005 -5.513677
v 22.37572 3.968006 -6.114616
v 22.46159 2.976005 -6.166271
v 23.76856 0 -3.504238
v 21.77642 0 -2.628178
v 21.77642 0.9920015 -2.628178
v 23.85443 0.9920015 -3.555893
v 19.78428 0 -1.752119
v 19.78428 0.9920015 -1.752119
v 19.78428 1.984003 -1.752119
v 21.77642 1.984003 -2.628178
v 23.85443 1.984003 -3.555893
v 17.79214 0 -0.8760595
v 17.79214 0.9920015 -0.8760595
v 15.8 0 0
v 15.8 0.9920015 0
v 15.8 1.984003 0
v 17.79214 1.984003 -0.8760595
v 17.79214 2.976005 -0.8760595
v 19.78428 2.976005 -1.752119
v 15.8 2.976005 0
v 15.8 3.968006 0
v 17.79214 3.968006 -0.8760595
v 19.78428 3.968006 -1.752119
v 21.77642 2.976005 -2.628178
v 23.85443 2.976005 -3.555893
v 21.77642 3.968006 -2.628178
v 23.76856 3.968006 -3.504238
v 19.08786 0 -3.057308
v 19.08786 0.9920015 -3.057308
v 17.44393 0.9920015 -1.528654
v 17.44393 0 -1.528654
v 19.08786 1.984003 -3.057308
v 17.44393 1.984003 -1.528654
v 15.8 1.984003 0
v 15.8 0.9920015 0
v 15.8 0 0
v 22.46159 1.984003 -6.166271
v 20.73179 1.984003 -4.585962
v 20.73179 0.9920015 -4.585962
v 22.46159 0.9920015 -6.166271
v 20.73179 0 -4.585962
v 22.37572 0 -6.114616
v 22.46159 2.976005 -6.166271
v 20.73179 2.976005 -4.585962
v 22.37572 3.968006 -6.114616
v 20.73179 3.968006 -4.585962
v 19.08786 3.968006 -3.057308
v 19.08786 2.976005 -3.057308
v 17.44393 2.976005 -1.528654
v 17.44393 3.968006 -1.528654
v 15.8 3.968006 0
v 15.8 2.976005 0

vn 0 -1 0
vn 0 -1 0
vn 0 -1 0
vn 0 -0.9999999 0
vn 0 -1 0
vn 0 -0.9999999 0
vn 0 -1 0
vn 0 -1 0
vn 0 -1 0
vn 0 -1 0
vn 0 -1 0
vn 0 -1 0
vn 0 -1 0
vn 0 -1 0
vn 0 -1 0
vn 0 -1 0
vn 0 -0.9999999 0
vn 0 -1 0
vn 0 -1 0
vn 0 1 0
vn 0 1 0
vn 0 1 0
vn 0 0.9999999 0
vn 0 1 0
vn 0 1 0
vn 0 1 0
vn 0 1 0
vn 0 0.9999999 0
vn 0 1 0
vn 0 1 0
vn 0 1 0
vn 0 1 0
vn 0 1 0
vn 0 1 0
vn 0 0.9999999 0
vn 0 1 0
vn 0 1 0
vn 0 1 0
vn 0.8822628 -7.10772E-08 -0.4707572
vn 0.8822627 0 -0.4707572
vn 0.8814393 -0.0431958 -0.4703179
vn 0.8811426 -0.05037813 -0.4701593
vn 0.8822629 0 -0.4707571
vn 0.8802742 -0.06710463 -0.4696959
vn 0.8778072 -0.1003749 -0.4683796
vn 0.8778071 -0.1003749 -0.4683798
vn 0.8778071 -0.1003748 -0.4683797
vn 0.8778073 -0.1003749 -0.4683794
vn 0.8811426 -0.05037813 -0.4701594
vn 0.8811426 -0.05037813 -0.4701592
vn 0.8778072 -0.1003746 -0.4683797
vn 0.8822629 0 -0.4707569
vn 0.8822629 -1.417585E-07 -0.470757
vn 0.8778073 0.1003748 -0.4683794
vn 0.8778072 0.1003749 -0.4683795
vn 0.8811427 0.05037813 -0.4701592
vn 0.8802742 0.06710463 -0.4696958
vn 0.877807 0.1003749 -0.4683798
vn 0.8817644 0.03360912 -0.4704913
vn 0.877807 0.1003749 -0.4683798
vn 0.8802742 0.06710465 -0.4696962
vn 0.8778072 0.1003749 -0.4683796
vn 0.8817645 0.03360912 -0.4704911
vn 0.4025199 0.01281862 0.9153216
vn 0.4038726 0.003168715 0.9148097
vn 0.4046531 0 0.9144702
vn 0.4064263 0.003098724 0.9136783
vn 0.4025529 0 0.9153968
vn 0.4025529 0 0.9153968
vn 0.4025529 0 0.9153968
vn 0.4051661 0 0.9142431
vn 0.4076621 0 0.9131328
vn 0.4025529 0 0.9153968
vn 0.4025529 0 0.9153968
vn 0.4025529 0 0.9153967
vn 0.4025529 0 0.9153968
vn 0.4025529 0 0.9153968
vn 0.4025529 0 0.9153968
vn 0.4025529 0 0.9153968
vn 0.4025529 0 0.9153968
vn 0.4025529 0 0.9153968
vn 0.4025529 0 0.9153967
vn 0.4025529 0 0.9153968
vn 0.4025529 0 0.9153968
vn 0.4051661 0 0.9142431
vn 0.4060072 -0.004146884 0.9138604
vn 0.4043049 -0.004209095 0.9146146
vn 0.4025199 -0.01281862 0.9153216
vn -0.6809647 0 -0.7323163
vn -0.6809647 0 -0.7323162
vn -0.6809648 0 -0.7323163
vn -0.6809648 0 -0.7323163
vn -0.6809648 0 -0.7323163
vn -0.6809648 0 -0.7323163
vn -0.6809648 0 -0.7323163
vn -0.6809648 0 -0.7323163
vn -0.6809647 0 -0.7323163
vn -0.6744848 0 -0.7382888
vn -0.677662 0 -0.7353735
vn -0.6790587 0.00293672 -0.7340781
vn -0.6744699 0.006647135 -0.7382724
vn -0.6809647 0 -0.7323163
vn -0.6776268 0.01018381 -0.7353354
vn -0.6765739 -0.006741322 -0.7363438
vn -0.677662 0 -0.7353735
vn -0.6808172 -0.02080925 -0.7321577
vn -0.6787328 -0.006838158 -0.7343535
vn -0.6809648 0 -0.7323163
vn -0.6809648 0 -0.7323163
vn -0.6809648 0 -0.7323163
vn -0.6809648 0 -0.7323163
vn -0.6809647 0 -0.7323163
vn -0.6809648 0 -0.7323163

vt 8.77197 -3.79209
vt 9.203876 -4.519174
vt 6.779829 -2.916031
vt 9.635782 -5.246256
vt 8.855665 -5.171768
vt 8.075548 -5.09728
vt 6.431618 -3.568625
vt 7.817747 -4.0439
vt 4.787688 -2.039971
vt 10.80596 -5.357988
vt 10.84781 -6.047828
vt 10.76411 -4.66815
vt 12.75625 -5.544209
vt 12.40804 -6.196804
vt 12.05983 -6.849399
vt 11.71162 -7.501993
vt 10.28364 -6.336881
vt 11.36341 -8.154588
vt 9.719478 -6.625934
vt -4.067977 -3.131797
vt -5.495954 -4.296909
vt -3.28786 -3.057308
vt -4.931789 -4.585962
vt -6.575719 -6.114616
vt -6.92393 -5.462022
vt -7.272141 -4.809427
vt -4.848094 -3.206285
vt -6.060118 -4.007856
vt -6.01827 -3.318017
vt -4.416188 -2.479202
vt -7.620352 -4.156833
vt -7.968563 -3.504238
vt -5.976422 -2.628178
vt -3.984282 -1.752119
vt 8.768717E-13 -1.135072E-12
vt -1.64393 -1.528654
vt -3.030059 -2.003928
vt -1.992141 -0.8760595
vt 0.8197663 1.984003
vt 1.559449 1.984003
vt 1.559449 0.9920015
vt 0.8197663 0.9920015
vt 2.299132 1.984003
vt 2.299132 0.9920015
vt 2.299132 0
vt 1.559449 0
vt 0.8197663 0
vt -0.6595993 0
vt -0.6595993 0.9920015
vt 0.08008349 0.9920015
vt 0.08008349 0
vt -0.6595993 1.984003
vt 0.08008349 1.984003
vt -0.6595993 3.968006
vt 0.08008349 3.968006
vt 0.08008349 2.976005
vt -0.6595993 2.976005
vt 0.8197663 3.968006
vt 0.8197663 2.976005
vt 1.559449 3.968006
vt 1.559449 2.976005
vt 2.299132 3.968006
vt 2.299132 2.976005
vt -0.6595993 0
vt -2.835859 0
vt -2.835859 0.9920015
vt -0.6595993 0.9920015
vt -5.012118 0
vt -5.012118 0.9920015
vt -5.012118 1.984003
vt -2.835859 1.984003
vt -0.6595993 1.984003
vt -7.188378 0
vt -7.188378 0.9920015
vt -9.364637 0
vt -9.364637 0.9920015
vt -9.364637 1.984003
vt -7.188378 1.984003
vt -7.188378 2.976005
vt -5.012118 2.976005
vt -9.364637 2.976005
vt -9.364637 3.968006
vt -7.188378 3.968006
vt -5.012118 3.968006
vt -2.835859 2.976005
vt -0.6595993 2.976005
vt -2.835859 3.968006
vt -0.6595993 3.968006
vt 6.788805 0
vt 6.788805 0.9920015
vt 9.033641 0.9920015
vt 9.033641 0
vt 6.788805 1.984003
vt 9.033641 1.984003
vt 11.27848 1.984003
vt 11.27848 0.9920015
vt 11.27848 0
vt 2.299132 1.984003
vt 4.543969 1.984003
vt 4.543968 0.9920015
vt 2.299132 0.9920015
vt 4.543968 0
vt 2.299132 0
vt 2.299132 2.976005
vt 4.543968 2.976005
vt 2.299132 3.968006
vt 4.543968 3.968006
vt 6.788805 3.968006
vt 6.788805 2.976005
vt 9.033641 2.976005
vt 9.033641 3.968006
vt 11.27848 3.968006
vt 11.27848 2.976005

g New Game Object
usemtl Default_Prototype
f 41/41/41 40/40/40 39/39/39
f 42/42/42 41/41/41 39/39/39
f 40/40/40 41/41/41 43/43/43
f 41/41/41 44/44/44 43/43/43
f 41/41/41 46/46/46 44/44/44
f 46/46/46 45/45/45 44/44/44
f 42/42/42 47/47/47 41/41/41
f 47/47/47 46/46/46 41/41/41
f 51/51/51 50/50/50 49/49/49
f 48/48/48 51/51/51 49/49/49
f 49/49/49 50/50/50 53/53/53
f 52/52/52 49/49/49 53/53/53
f 53/53/53 50/50/50 39/39/39
f 50/50/50 42/42/42 39/39/39
f 47/47/47 42/42/42 50/50/50
f 47/47/47 50/50/50 51/51/51
f 54/54/54 57/57/57 55/55/55
f 57/57/57 56/56/56 55/55/55
f 55/55/55 56/56/56 58/58/58
f 56/56/56 59/59/59 58/58/58
f 56/56/56 53/53/53 59/59/59
f 53/53/53 39/39/39 59/59/59
f 57/57/57 52/52/52 56/56/56
f 52/52/52 53/53/53 56/56/56
f 61/61/61 60/60/60 58/58/58
f 59/59/59 61/61/61 58/58/58
f 60/60/60 61/61/61 62/62/62
f 61/61/61 63/63/63 62/62/62
f 61/61/61 40/40/40 63/63/63
f 40/40/40 43/43/43 63/63/63
f 40/40/40 61/61/61 59/59/59
f 39/39/39 40/40/40 59/59/59
f 90/90/90 89/89/89 91/91/91
f 89/89/89 92/92/92 91/91/91
f 93/93/93 90/90/90 94/94/94
f 90/90/90 91/91/91 94/94/94
f 94/94/94 91/91/91 95/95/95
f 91/91/91 96/96/96 95/95/95
f 91/91/91 92/92/92 96/96/96
f 92/92/92 97/97/97 96/96/96
f 98/98/98 101/101/101 99/99/99
f 101/101/101 100/100/100 99/99/99
f 99/99/99 100/100/100 93/93/93
f 100/100/100 90/90/90 93/93/93
f 89/89/89 90/90/90 100/100/100
f 102/102/102 89/89/89 100/100/100
f 101/101/101 103/103/103 100/100/100
f 103/103/103 102/102/102 100/100/100
f 104/104/104 98/98/98 105/105/105
f 98/98/98 99/99/99 105/105/105
f 106/106/106 104/104/104 107/107/107
f 104/104/104 105/105/105 107/107/107
f 107/107/107 105/105/105 108/108/108
f 105/105/105 109/109/109 108/108/108
f 105/105/105 99/99/99 109/109/109
f 99/99/99 93/93/93 109/109/109
f 109/109/109 93/93/93 110/110/110
f 93/93/93 94/94/94 110/110/110
f 108/108/108 109/109/109 111/111/111
f 109/109/109 110/110/110 111/111/111
f 111/111/111 110/110/110 112/112/112
f 110/110/110 113/113/113 112/112/112
f 110/110/110 94/94/94 113/113/113
f 94/94/94 95/95/95 113/113/113
f 67/67/67 65/65/65 64/64/64
f 67/67/67 66/66/66 65/65/65
f 69/69/69 68/68/68 65/65/65
f 69/69/69 65/65/65 66/66/66
f 70/70/70 69/69/69 66/66/66
f 70/70/70 66/66/66 71/71/71
f 71/71/71 66/66/66 67/67/67
f 71/71/71 67/67/67 72/72/72
f 74/74/74 73/73/73 68/68/68
f 74/74/74 68/68/68 69/69/69
f 76/76/76 75/75/75 73/73/73
f 76/76/76 73/73/73 74/74/74
f 77/77/77 76/76/76 74/74/74
f 77/77/77 74/74/74 78/78/78
f 78/78/78 74/74/74 69/69/69
f 78/78/78 69/69/69 70/70/70
f 79/79/79 78/78/78 70/70/70
f 79/79/79 70/70/70 80/80/80
f 81/81/81 77/77/77 78/78/78
f 81/81/81 78/78/78 79/79/79
f 82/82/82 81/81/81 79/79/79
f 82/82/82 79/79/79 83/83/83
f 83/83/83 79/79/79 80/80/80
f 83/83/83 80/80/80 84/84/84
f 85/85/85 71/71/71 72/72/72
f 85/85/85 72/72/72 86/86/86
f 80/80/80 70/70/70 71/71/71
f 80/80/80 71/71/71 85/85/85
f 84/84/84 80/80/80 85/85/85
f 84/84/84 85/85/85 87/87/87
f 87/87/87 85/85/85 86/86/86
f 87/87/87 86/86/86 88/88/88
f 8/8/8 6/6/6 5/5/5
f 6/6/6 8/8/8 7/7/7
f 8/8/8 2/2/2 1/1/1
f 3/3/3 8/8/8 1/1/1
f 5/5/5 4/4/4 2/2/2
f 8/8/8 5/5/5 2/2/2
f 7/7/7 8/8/8 3/3/3
f 9/9/9 7/7/7 3/3/3
f 11/11/11 10/10/10 4/4/4
f 2/2/2 4/4/4 10/10/10
f 10/10/10 12/12/12 2/2/2
f 1/1/1 2/2/2 12/12/12
f 10/10/10 13/13/13 12/12/12
f 10/10/10 14/14/14 13/13/13
f 10/10/10 11/11/11 14/14/14
f 11/11/11 15/15/15 14/14/14
f 16/16/16 15/15/15 11/11/11
f 16/16/16 11/11/11 17/17/17
f 18/18/18 16/16/16 17/17/17
f 18/18/18 17/17/17 19/19/19
f 5/5/5 19/19/19 17/17/17
f 19/19/19 5/5/5 6/6/6
f 4/4/4 17/17/17 11/11/11
f 17/17/17 4/4/4 5/5/5
f 29/29/29 27/27/27 30/30/30
f 27/27/27 29/29/29 28/28/28
f 20/20/20 27/27/27 21/21/21
f 28/28/28 21/21/21 27/27/27
f 22/22/22 20/20/20 23/23/23
f 21/21/21 23/23/23 20/20/20
f 23/23/23 21/21/21 24/24/24
f 21/21/21 25/25/25 24/24/24
f 21/21/21 28/28/28 25/25/25
f 28/28/28 26/26/26 25/25/25
f 31/31/31 26/26/26 28/28/28
f 31/31/31 28/28/28 29/29/29
f 32/32/32 31/31/31 29/29/29
f 33/33/33 32/32/32 29/29/29
f 33/33/33 30/30/30 34/34/34
f 30/30/30 33/33/33 29/29/29
f 38/38/38 36/36/36 35/35/35
f 38/38/38 37/37/37 36/36/36
f 36/36/36 37/37/37 22/22/22
f 20/20/20 22/22/22 37/37/37
f 30/30/30 20/20/20 37/37/37
f 30/30/30 27/27/27 20/20/20
f 34/34/34 37/37/37 38/38/38
f 34/34/34 30/30/30 37/37/37

